  0
SECTION
  2
HEADER
  9
$ACADVER
  1
AC1027
  9
$ACADMAINTVER
 70
105
  9
$DWGCODEPAGE
  3
ANSI_1252
  9
$LASTSAVEDBY
  1
ezdxf
  9
$REQUIREDVERSIONS
160
0
  9
$INSBASE
 10
0.0
 20
0.0
 30
0.0
  9
$EXTMIN
 10
1e+20
 20
1e+20
 30
1e+20
  9
$EXTMAX
 10
-1e+20
 20
-1e+20
 30
-1e+20
  9
$LIMMIN
 10
0.0
 20
0.0
  9
$LIMMAX
 10
420.0
 20
297.0
  9
$ORTHOMODE
 70
0
  9
$REGENMODE
 70
1
  9
$FILLMODE
 70
1
  9
$QTEXTMODE
 70
0
  9
$MIRRTEXT
 70
1
  9
$LTSCALE
 40
1.0
  9
$ATTMODE
 70
1
  9
$TEXTSIZE
 40
2.5
  9
$TRACEWID
 40
1.0
  9
$TEXTSTYLE
  7
Standard
  9
$CLAYER
  8
0
  9
$CELTYPE
  6
ByLayer
  9
$CECOLOR
 62
256
  9
$CELTSCALE
 40
1.0
  9
$DISPSILH
 70
0
  9
$DIMSCALE
 40
1.0
  9
$DIMASZ
 40
2.5
  9
$DIMEXO
 40
0.625
  9
$DIMDLI
 40
3.75
  9
$DIMRND
 40
0.0
  9
$DIMDLE
 40
0.0
  9
$DIMEXE
 40
1.25
  9
$DIMTP
 40
0.0
  9
$DIMTM
 40
0.0
  9
$DIMTXT
 40
2.5
  9
$DIMCEN
 40
2.5
  9
$DIMTSZ
 40
0.0
  9
$DIMTOL
 70
0
  9
$DIMLIM
 70
0
  9
$DIMTIH
 70
0
  9
$DIMTOH
 70
0
  9
$DIMSE1
 70
0
  9
$DIMSE2
 70
0
  9
$DIMTAD
 70
1
  9
$DIMZIN
 70
8
  9
$DIMBLK
  1

  9
$DIMASO
 70
1
  9
$DIMSHO
 70
1
  9
$DIMPOST
  1

  9
$DIMAPOST
  1

  9
$DIMALT
 70
0
  9
$DIMALTD
 70
3
  9
$DIMALTF
 40
0.03937007874
  9
$DIMLFAC
 40
1.0
  9
$DIMTOFL
 70
1
  9
$DIMTVP
 40
0.0
  9
$DIMTIX
 70
0
  9
$DIMSOXD
 70
0
  9
$DIMSAH
 70
0
  9
$DIMBLK1
  1

  9
$DIMBLK2
  1

  9
$DIMSTYLE
  2
ISO-25
  9
$DIMCLRD
 70
0
  9
$DIMCLRE
 70
0
  9
$DIMCLRT
 70
0
  9
$DIMTFAC
 40
1.0
  9
$DIMGAP
 40
0.625
  9
$DIMJUST
 70
0
  9
$DIMSD1
 70
0
  9
$DIMSD2
 70
0
  9
$DIMTOLJ
 70
0
  9
$DIMTZIN
 70
8
  9
$DIMALTZ
 70
0
  9
$DIMALTTZ
 70
0
  9
$DIMUPT
 70
0
  9
$DIMDEC
 70
2
  9
$DIMTDEC
 70
2
  9
$DIMALTU
 70
2
  9
$DIMALTTD
 70
3
  9
$DIMTXSTY
  7
Standard
  9
$DIMAUNIT
 70
0
  9
$DIMADEC
 70
0
  9
$DIMALTRND
 40
0.0
  9
$DIMAZIN
 70
0
  9
$DIMDSEP
 70
44
  9
$DIMATFIT
 70
3
  9
$DIMFRAC
 70
0
  9
$DIMLDRBLK
  1

  9
$DIMLUNIT
 70
2
  9
$DIMLWD
 70
-2
  9
$DIMLWE
 70
-2
  9
$DIMTMOVE
 70
0
  9
$DIMFXL
 40
1.0
  9
$DIMFXLON
 70
0
  9
$DIMJOGANG
 40
0.785398163397
  9
$DIMTFILL
 70
0
  9
$DIMTFILLCLR
 70
0
  9
$DIMARCSYM
 70
0
  9
$DIMLTYPE
  6

  9
$DIMLTEX1
  6

  9
$DIMLTEX2
  6

  9
$DIMTXTDIRECTION
 70
0
  9
$LUNITS
 70
2
  9
$LUPREC
 70
4
  9
$SKETCHINC
 40
1.0
  9
$FILLETRAD
 40
10.0
  9
$AUNITS
 70
0
  9
$AUPREC
 70
2
  9
$MENU
  1
.
  9
$ELEVATION
 40
0.0
  9
$PELEVATION
 40
0.0
  9
$THICKNESS
 40
0.0
  9
$LIMCHECK
 70
0
  9
$CHAMFERA
 40
0.0
  9
$CHAMFERB
 40
0.0
  9
$CHAMFERC
 40
0.0
  9
$CHAMFERD
 40
0.0
  9
$SKPOLY
 70
0
  9
$TDCREATE
 40
2460773.6532060187
  9
$TDUCREATE
 40
2458532.153996898
  9
$TDUPDATE
 40
2460773.6532060187
  9
$TDUUPDATE
 40
2458532.1544311
  9
$TDINDWG
 40
0.0
  9
$TDUSRTIMER
 40
0.0
  9
$USRTIMER
 70
1
  9
$ANGBASE
 50
0.0
  9
$ANGDIR
 70
0
  9
$PDMODE
 70
0
  9
$PDSIZE
 40
0.0
  9
$PLINEWID
 40
0.0
  9
$SPLFRAME
 70
0
  9
$SPLINETYPE
 70
6
  9
$SPLINESEGS
 70
8
  9
$HANDSEED
  5
BB9
  9
$SURFTAB1
 70
6
  9
$SURFTAB2
 70
6
  9
$SURFTYPE
 70
6
  9
$SURFU
 70
6
  9
$SURFV
 70
6
  9
$UCSBASE
  2

  9
$UCSNAME
  2

  9
$UCSORG
 10
0.0
 20
0.0
 30
0.0
  9
$UCSXDIR
 10
1.0
 20
0.0
 30
0.0
  9
$UCSYDIR
 10
0.0
 20
1.0
 30
0.0
  9
$UCSORTHOREF
  2

  9
$UCSORTHOVIEW
 70
0
  9
$UCSORGTOP
 10
0.0
 20
0.0
 30
0.0
  9
$UCSORGBOTTOM
 10
0.0
 20
0.0
 30
0.0
  9
$UCSORGLEFT
 10
0.0
 20
0.0
 30
0.0
  9
$UCSORGRIGHT
 10
0.0
 20
0.0
 30
0.0
  9
$UCSORGFRONT
 10
0.0
 20
0.0
 30
0.0
  9
$UCSORGBACK
 10
0.0
 20
0.0
 30
0.0
  9
$PUCSBASE
  2

  9
$PUCSNAME
  2

  9
$PUCSORG
 10
0.0
 20
0.0
 30
0.0
  9
$PUCSXDIR
 10
1.0
 20
0.0
 30
0.0
  9
$PUCSYDIR
 10
0.0
 20
1.0
 30
0.0
  9
$PUCSORTHOREF
  2

  9
$PUCSORTHOVIEW
 70
0
  9
$PUCSORGTOP
 10
0.0
 20
0.0
 30
0.0
  9
$PUCSORGBOTTOM
 10
0.0
 20
0.0
 30
0.0
  9
$PUCSORGLEFT
 10
0.0
 20
0.0
 30
0.0
  9
$PUCSORGRIGHT
 10
0.0
 20
0.0
 30
0.0
  9
$PUCSORGFRONT
 10
0.0
 20
0.0
 30
0.0
  9
$PUCSORGBACK
 10
0.0
 20
0.0
 30
0.0
  9
$USERI1
 70
0
  9
$USERI2
 70
0
  9
$USERI3
 70
0
  9
$USERI4
 70
0
  9
$USERI5
 70
0
  9
$USERR1
 40
0.0
  9
$USERR2
 40
0.0
  9
$USERR3
 40
0.0
  9
$USERR4
 40
0.0
  9
$USERR5
 40
0.0
  9
$WORLDVIEW
 70
1
  9
$SHADEDGE
 70
3
  9
$SHADEDIF
 70
70
  9
$TILEMODE
 70
1
  9
$MAXACTVP
 70
64
  9
$PINSBASE
 10
0.0
 20
0.0
 30
0.0
  9
$PLIMCHECK
 70
0
  9
$PEXTMIN
 10
1e+20
 20
1e+20
 30
1e+20
  9
$PEXTMAX
 10
-1e+20
 20
-1e+20
 30
-1e+20
  9
$PLIMMIN
 10
0.0
 20
0.0
  9
$PLIMMAX
 10
420.0
 20
297.0
  9
$UNITMODE
 70
0
  9
$VISRETAIN
 70
1
  9
$PLINEGEN
 70
0
  9
$PSLTSCALE
 70
1
  9
$TREEDEPTH
 70
3020
  9
$CMLSTYLE
  2
Standard
  9
$CMLJUST
 70
0
  9
$CMLSCALE
 40
20.0
  9
$PROXYGRAPHICS
 70
1
  9
$MEASUREMENT
 70
1
  9
$CELWEIGHT
370
-1
  9
$ENDCAPS
280
0
  9
$JOINSTYLE
280
0
  9
$LWDISPLAY
290
0
  9
$INSUNITS
 70
6
  9
$HYPERLINKBASE
  1

  9
$STYLESHEET
  1

  9
$XEDIT
290
1
  9
$CEPSNTYPE
380
0
  9
$PSTYLEMODE
290
1
  9
$FINGERPRINTGUID
  2
{5D7A7AB6-6A41-476C-B8A3-81BB6EF1D5FA}
  9
$VERSIONGUID
  2
{0BF4BD8E-DBC4-436B-A60A-3CA2DE8891C2}
  9
$EXTNAMES
290
1
  9
$PSVPSCALE
 40
0.0
  9
$OLESTARTUP
290
0
  9
$SORTENTS
280
127
  9
$INDEXCTL
280
0
  9
$HIDETEXT
280
1
  9
$XCLIPFRAME
280
0
  9
$HALOGAP
280
0
  9
$OBSCOLOR
 70
257
  9
$OBSLTYPE
280
0
  9
$INTERSECTIONDISPLAY
280
0
  9
$INTERSECTIONCOLOR
 70
257
  9
$DIMASSOC
280
2
  9
$PROJECTNAME
  1

  9
$CAMERADISPLAY
290
0
  9
$LENSLENGTH
 40
50.0
  9
$CAMERAHEIGHT
 40
0.0
  9
$STEPSPERSEC
 40
24.0
  9
$STEPSIZE
 40
100.0
  9
$3DDWFPREC
 40
2.0
  9
$PSOLWIDTH
 40
0.005
  9
$PSOLHEIGHT
 40
0.08
  9
$LOFTANG1
 40
1.570796326795
  9
$LOFTANG2
 40
1.570796326795
  9
$LOFTMAG1
 40
0.0
  9
$LOFTMAG2
 40
0.0
  9
$LOFTPARAM
 70
7
  9
$LOFTNORMALS
280
1
  9
$LATITUDE
 40
37.795
  9
$LONGITUDE
 40
-122.394
  9
$NORTHDIRECTION
 40
0.0
  9
$TIMEZONE
 70
-8000
  9
$LIGHTGLYPHDISPLAY
280
1
  9
$TILEMODELIGHTSYNCH
280
1
  9
$CMATERIAL
347
20
  9
$SOLIDHIST
280
0
  9
$SHOWHIST
280
1
  9
$DWFFRAME
280
2
  9
$DGNFRAME
280
2
  9
$REALWORLDSCALE
290
1
  9
$INTERFERECOLOR
 62
256
  9
$CSHADOW
280
0
  9
$SHADOWPLANELOCATION
 40
0.0
  0
ENDSEC
  0
SECTION
  2
CLASSES
  0
CLASS
  1
ACDBDICTIONARYWDFLT
  2
AcDbDictionaryWithDefault
  3
ObjectDBX Classes
 90
0
 91
0
280
0
281
0
  0
CLASS
  1
SUN
  2
AcDbSun
  3
SCENEOE
 90
1153
 91
0
280
0
281
0
  0
CLASS
  1
VISUALSTYLE
  2
AcDbVisualStyle
  3
ObjectDBX Classes
 90
4095
 91
0
280
0
281
0
  0
CLASS
  1
MATERIAL
  2
AcDbMaterial
  3
ObjectDBX Classes
 90
1153
 91
0
280
0
281
0
  0
CLASS
  1
SCALE
  2
AcDbScale
  3
ObjectDBX Classes
 90
1153
 91
0
280
0
281
0
  0
CLASS
  1
TABLESTYLE
  2
AcDbTableStyle
  3
ObjectDBX Classes
 90
4095
 91
0
280
0
281
0
  0
CLASS
  1
MLEADERSTYLE
  2
AcDbMLeaderStyle
  3
ACDB_MLEADERSTYLE_CLASS
 90
4095
 91
0
280
0
281
0
  0
CLASS
  1
DICTIONARYVAR
  2
AcDbDictionaryVar
  3
ObjectDBX Classes
 90
0
 91
0
280
0
281
0
  0
CLASS
  1
CELLSTYLEMAP
  2
AcDbCellStyleMap
  3
ObjectDBX Classes
 90
1152
 91
0
280
0
281
0
  0
CLASS
  1
MENTALRAYRENDERSETTINGS
  2
AcDbMentalRayRenderSettings
  3
SCENEOE
 90
1024
 91
0
280
0
281
0
  0
CLASS
  1
ACDBDETAILVIEWSTYLE
  2
AcDbDetailViewStyle
  3
ObjectDBX Classes
 90
1025
 91
0
280
0
281
0
  0
CLASS
  1
ACDBSECTIONVIEWSTYLE
  2
AcDbSectionViewStyle
  3
ObjectDBX Classes
 90
1025
 91
0
280
0
281
0
  0
CLASS
  1
RASTERVARIABLES
  2
AcDbRasterVariables
  3
ISM
 90
0
 91
0
280
0
281
0
  0
CLASS
  1
LAYOUT
  2
AcDbLayout
  3
ObjectDBX Classes
 90
0
 91
0
280
0
281
0
  0
CLASS
  1
ACDBPLACEHOLDER
  2
AcDbPlaceHolder
  3
ObjectDBX Classes
 90
0
 91
0
280
0
281
0
  0
ENDSEC
  0
SECTION
  2
TABLES
  0
TABLE
  2
VPORT
  5
8
330
0
100
AcDbSymbolTable
 70
1
  0
VPORT
  5
23
330
8
100
AcDbSymbolTableRecord
100
AcDbViewportTableRecord
  2
*Active
 70
0
 10
0.0
 20
0.0
 11
1.0
 21
1.0
 12
0.0
 22
0.0
 13
0.0
 23
0.0
 14
0.5
 24
0.5
 15
0.5
 25
0.5
 16
0.0
 26
0.0
 36
1.0
 17
0.0
 27
0.0
 37
0.0
 40
1000.0
 41
1.34
 42
50.0
 43
0.0
 44
0.0
 50
0.0
 51
0.0
 71
0
 72
1000
 73
1
 74
3
 75
0
 76
0
 77
0
 78
0
281
0
 65
0
146
0.0
  0
ENDTAB
  0
TABLE
  2
LTYPE
  5
2
330
0
100
AcDbSymbolTable
 70
3
  0
LTYPE
  5
24
330
2
100
AcDbSymbolTableRecord
100
AcDbLinetypeTableRecord
  2
ByBlock
 70
0
  3

 72
65
 73
0
 40
0.0
  0
LTYPE
  5
25
330
2
100
AcDbSymbolTableRecord
100
AcDbLinetypeTableRecord
  2
ByLayer
 70
0
  3

 72
65
 73
0
 40
0.0
  0
LTYPE
  5
26
330
2
100
AcDbSymbolTableRecord
100
AcDbLinetypeTableRecord
  2
Continuous
 70
0
  3

 72
65
 73
0
 40
0.0
  0
ENDTAB
  0
TABLE
  2
LAYER
  5
1
330
0
100
AcDbSymbolTable
 70
9
  0
LAYER
  5
27
330
1
100
AcDbSymbolTableRecord
100
AcDbLayerTableRecord
  2
0
 70
0
 62
7
  6
Continuous
370
-3
390
13
347
21
  0
LAYER
  5
28
330
1
100
AcDbSymbolTableRecord
100
AcDbLayerTableRecord
  2
Defpoints
 70
0
 62
7
  6
Continuous
290
0
370
-3
390
13
347
21
  0
LAYER
  5
BB1
330
1
100
AcDbSymbolTableRecord
100
AcDbLayerTableRecord
  2
ClippingPolygon
 70
0
 62
7
  6
CONTINUOUS
370
-3
390
13
347
21
  0
LAYER
  5
BB3
330
1
100
AcDbSymbolTableRecord
100
AcDbLayerTableRecord
  2
BOTTOM
 70
0
 62
7
  6
Continuous
370
-3
390
13
347
21
  0
LAYER
  5
BB4
330
1
100
AcDbSymbolTableRecord
100
AcDbLayerTableRecord
  2
GND1
 70
0
 62
7
  6
Continuous
370
-3
390
13
347
21
  0
LAYER
  5
BB5
330
1
100
AcDbSymbolTableRecord
100
AcDbLayerTableRecord
  2
TOP
 70
0
 62
7
  6
Continuous
370
-3
390
13
347
21
  0
LAYER
  5
BB6
330
1
100
AcDbSymbolTableRecord
100
AcDbLayerTableRecord
  2
GND3
 70
0
 62
7
  6
Continuous
370
-3
390
13
347
21
  0
LAYER
  5
BB7
330
1
100
AcDbSymbolTableRecord
100
AcDbLayerTableRecord
  2
GND2
 70
0
 62
7
  6
Continuous
370
-3
390
13
347
21
  0
LAYER
  5
BB8
330
1
100
AcDbSymbolTableRecord
100
AcDbLayerTableRecord
  2
VIAS
 70
0
 62
7
  6
Continuous
370
-3
390
13
347
21
  0
ENDTAB
  0
TABLE
  2
STYLE
  5
5
330
0
100
AcDbSymbolTable
 70
1
  0
STYLE
  5
29
330
5
100
AcDbSymbolTableRecord
100
AcDbTextStyleTableRecord
  2
Standard
 70
0
 40
0.0
 41
1.0
 50
0.0
 71
0
 42
2.5
  3
txt
  4

  0
ENDTAB
  0
TABLE
  2
VIEW
  5
7
330
0
100
AcDbSymbolTable
 70
0
  0
ENDTAB
  0
TABLE
  2
UCS
  5
6
330
0
100
AcDbSymbolTable
 70
0
  0
ENDTAB
  0
TABLE
  2
APPID
  5
3
330
0
100
AcDbSymbolTable
 70
3
  0
APPID
  5
2A
330
3
100
AcDbSymbolTableRecord
100
AcDbRegAppTableRecord
  2
ACAD
 70
0
  0
APPID
  5
BAE
330
3
100
AcDbSymbolTableRecord
100
AcDbRegAppTableRecord
  2
HATCHBACKGROUNDCOLOR
 70
0
  0
APPID
  5
BAF
330
3
100
AcDbSymbolTableRecord
100
AcDbRegAppTableRecord
  2
EZDXF
 70
0
  0
ENDTAB
  0
TABLE
  2
DIMSTYLE
  5
4
330
0
100
AcDbSymbolTable
 70
1
100
AcDbDimStyleTable
  0
DIMSTYLE
105
2B
330
4
100
AcDbSymbolTableRecord
100
AcDbDimStyleTableRecord
  2
Standard
 70
0
 40
1.0
 41
2.5
 42
0.625
 43
3.75
 44
1.25
 45
0.0
 46
0.0
 47
0.0
 48
0.0
 49
2.5
140
2.5
141
2.5
142
0.0
143
0.03937007874
144
1.0
145
0.0
146
1.0
147
0.625
148
0.0
 69
0
 70
0
 71
0
 72
0
 73
0
 74
0
 75
0
 76
0
 77
1
 78
8
 79
3
170
0
171
3
172
1
173
0
174
0
175
0
176
0
177
0
178
0
179
2
271
2
272
2
273
2
274
3
275
0
276
0
277
2
278
44
279
0
280
0
281
0
282
0
283
0
284
8
285
0
286
0
288
0
289
3
290
0
371
-2
372
-2
  0
ENDTAB
  0
TABLE
  2
BLOCK_RECORD
  5
9
330
0
100
AcDbSymbolTable
 70
2
  0
BLOCK_RECORD
  5
17
330
9
100
AcDbSymbolTableRecord
100
AcDbBlockTableRecord
  2
*Model_Space
340
1A
 70
0
280
1
281
0
  0
BLOCK_RECORD
  5
1B
330
9
100
AcDbSymbolTableRecord
100
AcDbBlockTableRecord
  2
*Paper_Space
340
1E
 70
0
280
1
281
0
  0
ENDTAB
  0
ENDSEC
  0
SECTION
  2
BLOCKS
  0
BLOCK
  5
18
330
17
100
AcDbEntity
  8
0
100
AcDbBlockBegin
  2
*Model_Space
 70
0
 10
0.0
 20
0.0
 30
0.0
  3
*Model_Space
  1

  0
ENDBLK
  5
19
330
17
100
AcDbEntity
  8
0
100
AcDbBlockEnd
  0
BLOCK
  5
1C
330
1B
100
AcDbEntity
  8
0
100
AcDbBlockBegin
  2
*Paper_Space
 70
0
 10
0.0
 20
0.0
 30
0.0
  3
*Paper_Space
  1

  0
ENDBLK
  5
1D
330
1B
100
AcDbEntity
  8
0
100
AcDbBlockEnd
  0
ENDSEC
  0
SECTION
  2
ENTITIES
  0
LWPOLYLINE
  5
31
330
17
100
AcDbEntity
  8
BOTTOM
  6
ByLayer
100
AcDbPolyline
 90
10
 70
1
 10
-24.275874
 20
32.403141
 10
-24.275874
 20
5.24
 10
-5.706202
 20
5.24
 42
0.8608600000000002
 10
-4.875
 20
5.365
 42
0.8608600000000002
 10
-5.706202
 20
5.49
 10
-24.025874
 20
5.49
 10
-24.025874
 20
32.153141
 10
-16.271689
 20
32.153141
 42
0.8608599999999949
 10
-15.440487
 20
32.278141
 42
0.8608599999999949
 10
-16.271689
 20
32.403141
  0
LWPOLYLINE
  5
39
330
17
100
AcDbEntity
  8
BOTTOM
  6
ByLayer
100
AcDbPolyline
 90
38
 70
1
 10
-0.7
 20
20.446401
 10
-0.7
 20
13.996909
 42
-0.4313729999999996
 10
-0.6806190000000006
 20
12.651375
 42
-0.4313730000000033
 10
-2.025000000000004
 20
12.710331
 10
-2.024999999999999
 20
6.046909
 42
-0.6840309999999995
 10
-2.65
 20
4.44
 42
-0.6840310000000001
 10
-3.274999999999999
 20
6.046908999999999
 10
-3.275000000000001
 20
12.710331
 42
-0.1806029999999996
 10
-3.842599000000004
 20
12.399525
 42
-0.1806029999999987
 10
-4.474999999999998
 20
12.536781
 10
-4.475
 20
7.479075
 10
-22.529143
 20
7.479075
 10
-22.529143
 20
30.75953
 10
-14.102608
 20
30.75953
 10
-12.624238
 20
32.2379
 42
-0.6840310000000012
 10
-11.04604
 20
32.932215
 42
-0.684030999999998
 10
-11.740354
 20
31.354016
 10
-13.584841
 20
29.50953
 10
-21.279143
 20
29.50953
 10
-21.279143
 20
8.729075
 10
-5.725
 20
8.729075
 10
-5.725
 20
13.94
 10
-4.656908999999999
 20
13.94
 42
-0.2140899999999994
 10
-3.961393
 20
14.2399
 42
-0.2140899999999999
 10
-3.274999999999999
 20
13.919669
 10
-3.275
 20
17.801401
 10
-15.405314
 20
17.801401
 10
-15.405314
 20
15.680326
 42
-0.6840310000000002
 10
-16.030314
 20
14.073417
 42
-0.6840310000000002
 10
-16.655314
 20
15.680326
 10
-16.655314
 20
19.051401
 10
-2.025
 20
19.051401
 10
-2.025
 20
19.196401
 10
-19.570686
 20
19.196401
 10
-19.570686
 20
15.680326
 42
-0.6840310000000002
 10
-20.195686
 20
14.073417
 42
-0.6840310000000002
 10
-20.820686
 20
15.680326
 10
-20.820686
 20
20.446401
  0
LWPOLYLINE
  5
120
330
17
100
AcDbEntity
  8
TOP
  6
ByLayer
100
AcDbPolyline
 90
46
 70
1
 10
-26.436112
 20
35.541271
 10
-26.436112
 20
35.287271
 10
-26.636112
 20
35.287271
 10
-26.636112
 20
33.128271
 10
-26.436112
 20
33.128271
 10
-26.436112
 20
32.874271
 10
-26.636112
 20
32.874271
 10
-26.636112
 20
31.874271
 10
-26.176636
 20
31.874271
 10
-26.1775
 20
30.895715
 10
-23.636516
 20
30.895715
 10
-23.04823
 20
30.307429
 10
-22.459943
 20
30.895715
 10
-19.918959
 20
30.895715
 10
-19.918959
 20
35.76497
 10
-18.409
 20
37.274929
 10
-18.409
 20
37.995757
 10
-16.264
 20
37.995757
 10
-16.264
 20
36.595757
 10
-15.764
 20
36.028857
 10
-14.6972
 20
36.028857
 10
-14.6972
 20
36.333657
 10
-14.6972
 20
36.587657
 10
-14.4432
 20
36.587657
 10
-14.1384
 20
36.587657
 10
-14.1384
 20
37.654457
 10
-14.7053
 20
38.154457
 10
-16.6053
 20
38.154457
 10
-16.6053
 20
40.089457
 10
-15.1053
 20
40.089457
 10
-15.1053
 20
41.27872
 10
-13.874514
 20
42.509507
 10
-10.8225
 20
42.509507
 10
-10.8225
 20
46.201527
 10
-8.8225
 20
46.201527
 10
-8.8225
 20
47.5
 10
-21.1775
 20
47.5
 10
-21.1775
 20
46.201527
 10
-19.1775
 20
46.201527
 10
-19.1775
 20
39.164827
 10
-20.763286
 20
39.164827
 10
-22.408286
 20
37.519827
 10
-26.176636
 20
37.519827
 10
-26.176636
 20
36.546271
 10
-26.636112
 20
36.546271
 10
-26.636112
 20
35.541271
  0
LWPOLYLINE
  5
124
330
17
100
AcDbEntity
  8
GND3
  6
ByLayer
100
AcDbPolyline
 90
8
 70
1
 10
-31.0
 20
1.0
 10
-30.0
 20
0.0
 10
30.0
 20
0.0
 10
31.0
 20
1.0
 10
31.0
 20
46.5
 10
30.0
 20
47.5
 10
-30.0
 20
47.5
 10
-31.0
 20
46.5
  0
CIRCLE
  5
27F
330
17
100
AcDbEntity
  8
VIAS
  6
ByLayer
100
AcDbCircle
 10
-26.70323
 20
26.454244
 30
0.0
 40
0.125
  0
CIRCLE
  5
281
330
17
100
AcDbEntity
  8
VIAS
  6
ByLayer
100
AcDbCircle
 10
-27.70323
 20
26.454244
 30
0.0
 40
0.125
  0
CIRCLE
  5
283
330
17
100
AcDbEntity
  8
VIAS
  6
ByLayer
100
AcDbCircle
 10
-28.70323
 20
26.454244
 30
0.0
 40
0.125
  0
CIRCLE
  5
289
330
17
100
AcDbEntity
  8
VIAS
  6
ByLayer
100
AcDbCircle
 10
-28.70323
 20
27.454244
 30
0.0
 40
0.125
  0
CIRCLE
  5
524
330
17
100
AcDbEntity
  8
VIAS
  6
ByLayer
100
AcDbCircle
 10
-20.393229
 20
26.454244
 30
0.0
 40
0.125
  0
CIRCLE
  5
525
330
17
100
AcDbEntity
  8
VIAS
  6
ByLayer
100
AcDbCircle
 10
-20.393229
 20
27.454244
 30
0.0
 40
0.125
  0
CIRCLE
  5
526
330
17
100
AcDbEntity
  8
VIAS
  6
ByLayer
100
AcDbCircle
 10
-19.545384
 20
27.825715
 30
0.0
 40
0.125
  0
CIRCLE
  5
527
330
17
100
AcDbEntity
  8
VIAS
  6
ByLayer
100
AcDbCircle
 10
-18.545384
 20
27.825715
 30
0.0
 40
0.125
  0
CIRCLE
  5
528
330
17
100
AcDbEntity
  8
VIAS
  6
ByLayer
100
AcDbCircle
 10
-17.735488
 20
28.430033
 30
0.0
 40
0.125
  0
CIRCLE
  5
533
330
17
100
AcDbEntity
  8
VIAS
  6
ByLayer
100
AcDbCircle
 10
-25.70323
 20
26.454244
 30
0.0
 40
0.125
  0
CIRCLE
  5
534
330
17
100
AcDbEntity
  8
VIAS
  6
ByLayer
100
AcDbCircle
 10
-25.70323
 20
27.454244
 30
0.0
 40
0.125
  0
CIRCLE
  5
535
330
17
100
AcDbEntity
  8
VIAS
  6
ByLayer
100
AcDbCircle
 10
-26.551075
 20
27.825715
 30
0.0
 40
0.125
  0
CIRCLE
  5
536
330
17
100
AcDbEntity
  8
VIAS
  6
ByLayer
100
AcDbCircle
 10
-27.551075
 20
27.825715
 30
0.0
 40
0.125
  0
CIRCLE
  5
537
330
17
100
AcDbEntity
  8
VIAS
  6
ByLayer
100
AcDbCircle
 10
-28.360971
 20
28.430033
 30
0.0
 40
0.125
  0
CIRCLE
  5
551
330
17
100
AcDbEntity
  8
VIAS
  6
ByLayer
100
AcDbCircle
 10
-20.343959
 20
31.320715
 30
0.0
 40
0.125
  0
CIRCLE
  5
552
330
17
100
AcDbEntity
  8
VIAS
  6
ByLayer
100
AcDbCircle
 10
-21.343959
 20
31.320715
 30
0.0
 40
0.125
  0
CIRCLE
  5
553
330
17
100
AcDbEntity
  8
VIAS
  6
ByLayer
100
AcDbCircle
 10
-22.343959
 20
31.320715
 30
0.0
 40
0.125
  0
CIRCLE
  5
59D
330
17
100
AcDbEntity
  8
VIAS
  6
ByLayer
100
AcDbCircle
 10
-25.751636
 20
31.679285
 30
0.0
 40
0.125
  0
CIRCLE
  5
5FD
330
17
100
AcDbEntity
  8
VIAS
  6
ByLayer
100
AcDbCircle
 10
-19.393229
 20
26.454244
 30
0.0
 40
0.125
  0
CIRCLE
  5
600
330
17
100
AcDbEntity
  8
VIAS
  6
ByLayer
100
AcDbCircle
 10
-18.393229
 20
26.454244
 30
0.0
 40
0.125
  0
LINE
  5
6CC
330
17
100
AcDbEntity
  8
BOTTOM
  6
ByLayer
100
AcDbLine
 10
-21.779143
 20
8.229075
 30
0.0
 11
-21.779143
 21
30.00953
 31
0.0
  0
LINE
  5
6CD
330
17
100
AcDbEntity
  8
BOTTOM
  6
ByLayer
100
AcDbLine
 10
-21.779143
 20
30.00953
 30
0.0
 11
-13.791947
 21
30.00953
 31
0.0
  0
LINE
  5
6D2
330
17
100
AcDbEntity
  8
BOTTOM
  6
ByLayer
100
AcDbLine
 10
-13.895501
 20
30.25953
 30
0.0
 11
-22.029143
 21
30.25953
 31
0.0
  0
LINE
  5
6D3
330
17
100
AcDbEntity
  8
BOTTOM
  6
ByLayer
100
AcDbLine
 10
-22.029143
 20
30.25953
 30
0.0
 11
-22.029143
 21
7.979075
 31
0.0
  0
LINE
  5
704
330
17
100
AcDbEntity
  8
BOTTOM
  6
ByLayer
100
AcDbLine
 10
-24.775874
 20
4.74
 30
0.0
 11
-24.775874
 21
32.903141
 31
0.0
  0
LINE
  5
708
330
17
100
AcDbEntity
  8
BOTTOM
  6
ByLayer
100
AcDbLine
 10
-16.547396
 20
31.653141
 30
0.0
 11
-23.525874
 21
31.653141
 31
0.0
  0
LINE
  5
709
330
17
100
AcDbEntity
  8
BOTTOM
  6
ByLayer
100
AcDbLine
 10
-23.525874
 20
31.653141
 30
0.0
 11
-23.525874
 21
5.99
 31
0.0
  0
LINE
  5
81E
330
17
100
AcDbEntity
  8
TOP
  6
ByLayer
100
AcDbLine
 10
-24.05073
 20
29.895715
 30
0.0
 11
-27.177212
 21
29.895715
 31
0.0
  0
LINE
  5
81F
330
17
100
AcDbEntity
  8
TOP
  6
ByLayer
100
AcDbLine
 10
-27.177212
 20
29.895715
 30
0.0
 11
-27.177212
 21
33.140971
 31
0.0
  0
LINE
  5
825
330
17
100
AcDbEntity
  8
TOP
  6
ByLayer
100
AcDbLine
 10
-27.822212
 20
33.140971
 30
0.0
 11
-27.822212
 21
31.440971
 31
0.0
  0
LINE
  5
826
330
17
100
AcDbEntity
  8
TOP
  6
ByLayer
100
AcDbLine
 10
-27.822212
 20
31.440971
 30
0.0
 11
-29.672212
 21
31.440971
 31
0.0
  0
LINE
  5
828
330
17
100
AcDbEntity
  8
TOP
  6
ByLayer
100
AcDbLine
 10
-29.672212
 20
30.795971
 30
0.0
 11
-27.822212
 21
30.795971
 31
0.0
  0
LINE
  5
829
330
17
100
AcDbEntity
  8
TOP
  6
ByLayer
100
AcDbLine
 10
-27.822212
 20
30.795971
 30
0.0
 11
-27.822212
 21
29.895715
 31
0.0
  0
LINE
  5
82A
330
17
100
AcDbEntity
  8
TOP
  6
ByLayer
100
AcDbLine
 10
-27.822212
 20
29.895715
 30
0.0
 11
-27.1775
 21
29.250715
 31
0.0
  0
LINE
  5
82B
330
17
100
AcDbEntity
  8
TOP
  6
ByLayer
100
AcDbLine
 10
-27.1775
 20
29.250715
 30
0.0
 11
-24.05073
 21
29.250715
 31
0.0
  0
LINE
  5
82C
330
17
100
AcDbEntity
  8
TOP
  6
ByLayer
100
AcDbLine
 10
-24.05073
 20
29.250715
 30
0.0
 11
-24.05073
 21
28.250715
 31
0.0
  0
LINE
  5
82D
330
17
100
AcDbEntity
  8
TOP
  6
ByLayer
100
AcDbLine
 10
-24.05073
 20
28.250715
 30
0.0
 11
-23.85823
 21
28.250715
 31
0.0
  0
LINE
  5
82E
330
17
100
AcDbEntity
  8
TOP
  6
ByLayer
100
AcDbLine
 10
-23.85823
 20
28.250715
 30
0.0
 11
-23.85823
 21
27.250715
 31
0.0
  0
LINE
  5
82F
330
17
100
AcDbEntity
  8
TOP
  6
ByLayer
100
AcDbLine
 10
-23.85823
 20
27.250715
 30
0.0
 11
-24.27823
 21
27.250715
 31
0.0
  0
LINE
  5
830
330
17
100
AcDbEntity
  8
TOP
  6
ByLayer
100
AcDbLine
 10
-24.27823
 20
27.250715
 30
0.0
 11
-24.27823
 21
27.010715
 31
0.0
  0
LINE
  5
831
330
17
100
AcDbEntity
  8
TOP
  6
ByLayer
100
AcDbLine
 10
-24.27823
 20
27.010715
 30
0.0
 11
-24.17823
 21
27.010715
 31
0.0
  0
LINE
  5
832
330
17
100
AcDbEntity
  8
TOP
  6
ByLayer
100
AcDbLine
 10
-24.17823
 20
27.010715
 30
0.0
 11
-24.17823
 21
23.040715
 31
0.0
  0
LINE
  5
84C
330
17
100
AcDbEntity
  8
TOP
  6
ByLayer
100
AcDbLine
 10
-21.91823
 20
23.040715
 30
0.0
 11
-21.91823
 21
27.010715
 31
0.0
  0
LINE
  5
84D
330
17
100
AcDbEntity
  8
TOP
  6
ByLayer
100
AcDbLine
 10
-21.91823
 20
27.010715
 30
0.0
 11
-21.818229
 21
27.010715
 31
0.0
  0
LINE
  5
84E
330
17
100
AcDbEntity
  8
TOP
  6
ByLayer
100
AcDbLine
 10
-21.818229
 20
27.010715
 30
0.0
 11
-21.818229
 21
27.250715
 31
0.0
  0
LINE
  5
84F
330
17
100
AcDbEntity
  8
TOP
  6
ByLayer
100
AcDbLine
 10
-21.818229
 20
27.250715
 30
0.0
 11
-22.23823
 21
27.250715
 31
0.0
  0
LINE
  5
850
330
17
100
AcDbEntity
  8
TOP
  6
ByLayer
100
AcDbLine
 10
-22.23823
 20
27.250715
 30
0.0
 11
-22.23823
 21
28.250715
 31
0.0
  0
LINE
  5
851
330
17
100
AcDbEntity
  8
TOP
  6
ByLayer
100
AcDbLine
 10
-22.23823
 20
28.250715
 30
0.0
 11
-22.04573
 21
28.250715
 31
0.0
  0
LINE
  5
852
330
17
100
AcDbEntity
  8
TOP
  6
ByLayer
100
AcDbLine
 10
-22.04573
 20
28.250715
 30
0.0
 11
-22.04573
 21
29.250715
 31
0.0
  0
LINE
  5
853
330
17
100
AcDbEntity
  8
TOP
  6
ByLayer
100
AcDbLine
 10
-22.04573
 20
29.250715
 30
0.0
 11
-18.918959
 21
29.250715
 31
0.0
  0
LINE
  5
854
330
17
100
AcDbEntity
  8
TOP
  6
ByLayer
100
AcDbLine
 10
-18.918959
 20
29.250715
 30
0.0
 11
-18.273959
 21
29.895715
 31
0.0
  0
LINE
  5
855
330
17
100
AcDbEntity
  8
TOP
  6
ByLayer
100
AcDbLine
 10
-18.273959
 20
29.895715
 30
0.0
 11
-18.273959
 21
32.598757
 31
0.0
  0
LINE
  5
857
330
17
100
AcDbEntity
  8
TOP
  6
ByLayer
100
AcDbLine
 10
-18.918959
 20
32.598757
 30
0.0
 11
-18.918959
 21
29.895715
 31
0.0
  0
LINE
  5
858
330
17
100
AcDbEntity
  8
TOP
  6
ByLayer
100
AcDbLine
 10
-18.918959
 20
29.895715
 30
0.0
 11
-22.04573
 21
29.895715
 31
0.0
  0
LINE
  5
859
330
17
100
AcDbEntity
  8
TOP
  6
ByLayer
100
AcDbLine
 10
-22.04573
 20
29.895715
 30
0.0
 11
-22.69073
 21
29.250715
 31
0.0
  0
LINE
  5
85A
330
17
100
AcDbEntity
  8
TOP
  6
ByLayer
100
AcDbLine
 10
-22.69073
 20
29.250715
 30
0.0
 11
-22.69073
 21
28.250715
 31
0.0
  0
LINE
  5
85B
330
17
100
AcDbEntity
  8
TOP
  6
ByLayer
100
AcDbLine
 10
-22.69073
 20
28.250715
 30
0.0
 11
-22.49823
 21
28.250715
 31
0.0
  0
LINE
  5
85C
330
17
100
AcDbEntity
  8
TOP
  6
ByLayer
100
AcDbLine
 10
-22.49823
 20
28.250715
 30
0.0
 11
-22.49823
 21
27.250715
 31
0.0
  0
LINE
  5
85D
330
17
100
AcDbEntity
  8
TOP
  6
ByLayer
100
AcDbLine
 10
-22.49823
 20
27.250715
 30
0.0
 11
-22.81823
 21
27.250715
 31
0.0
  0
LINE
  5
85E
330
17
100
AcDbEntity
  8
TOP
  6
ByLayer
100
AcDbLine
 10
-22.81823
 20
27.250715
 30
0.0
 11
-22.81823
 21
23.040715
 31
0.0
  0
LINE
  5
876
330
17
100
AcDbEntity
  8
TOP
  6
ByLayer
100
AcDbLine
 10
-23.27823
 20
23.040715
 30
0.0
 11
-23.27823
 21
27.250715
 31
0.0
  0
LINE
  5
877
330
17
100
AcDbEntity
  8
TOP
  6
ByLayer
100
AcDbLine
 10
-23.27823
 20
27.250715
 30
0.0
 11
-23.598229
 21
27.250715
 31
0.0
  0
LINE
  5
878
330
17
100
AcDbEntity
  8
TOP
  6
ByLayer
100
AcDbLine
 10
-23.598229
 20
27.250715
 30
0.0
 11
-23.598229
 21
28.250715
 31
0.0
  0
LINE
  5
879
330
17
100
AcDbEntity
  8
TOP
  6
ByLayer
100
AcDbLine
 10
-23.598229
 20
28.250715
 30
0.0
 11
-23.40573
 21
28.250715
 31
0.0
  0
LINE
  5
87A
330
17
100
AcDbEntity
  8
TOP
  6
ByLayer
100
AcDbLine
 10
-23.40573
 20
28.250715
 30
0.0
 11
-23.40573
 21
29.250715
 31
0.0
  0
LINE
  5
87B
330
17
100
AcDbEntity
  8
TOP
  6
ByLayer
100
AcDbLine
 10
-23.40573
 20
29.250715
 30
0.0
 11
-24.05073
 21
29.895715
 31
0.0
  0
LINE
  5
A45
330
17
100
AcDbEntity
  8
TOP
  6
ByLayer
100
AcDbLine
 10
-25.27823
 20
26.010715
 30
0.0
 11
-25.27823
 21
28.250715
 31
0.0
  0
LINE
  5
A46
330
17
100
AcDbEntity
  8
TOP
  6
ByLayer
100
AcDbLine
 10
-25.27823
 20
28.250715
 30
0.0
 11
-27.591714
 21
28.250715
 31
0.0
  0
LINE
  5
A47
330
17
100
AcDbEntity
  8
TOP
  6
ByLayer
100
AcDbLine
 10
-27.591714
 20
28.250715
 30
0.0
 11
-28.8225
 21
29.481502
 31
0.0
  0
LINE
  5
AE1
330
17
100
AcDbEntity
  8
TOP
  6
ByLayer
100
AcDbLine
 10
-17.273959
 20
29.481502
 30
0.0
 11
-18.504745
 21
28.250715
 31
0.0
  0
LINE
  5
AE2
330
17
100
AcDbEntity
  8
TOP
  6
ByLayer
100
AcDbLine
 10
-18.504745
 20
28.250715
 30
0.0
 11
-20.818229
 21
28.250715
 31
0.0
  0
LINE
  5
AE3
330
17
100
AcDbEntity
  8
TOP
  6
ByLayer
100
AcDbLine
 10
-20.818229
 20
28.250715
 30
0.0
 11
-20.818229
 21
26.010715
 31
0.0
  0
LWPOLYLINE
  5
BB2
330
17
100
AcDbEntity
  8
ClippingPolygon
100
AcDbPolyline
 90
4
 70
1
 10
-28.652
 20
26.073
 10
-28.652
 20
31.983
 10
-17.8
 20
31.983
 10
-17.8
 20
26.073
  0
ENDSEC
  0
SECTION
  2
OBJECTS
  0
DICTIONARY
  5
A
330
0
100
AcDbDictionary
280
0
281
1
  3
ACAD_COLOR
350
B
  3
ACAD_GROUP
350
C
  3
ACAD_LAYOUT
350
D
  3
ACAD_MATERIAL
350
E
  3
ACAD_MLEADERSTYLE
350
F
  3
ACAD_MLINESTYLE
350
10
  3
ACAD_PLOTSETTINGS
350
11
  3
ACAD_PLOTSTYLENAME
350
12
  3
ACAD_SCALELIST
350
14
  3
ACAD_TABLESTYLE
350
15
  3
ACAD_VISUALSTYLE
350
16
  3
EZDXF_META
350
2D
  0
DICTIONARY
  5
B
330
A
100
AcDbDictionary
280
0
281
1
  0
DICTIONARY
  5
C
330
A
100
AcDbDictionary
280
0
281
1
  0
DICTIONARY
  5
D
330
A
100
AcDbDictionary
280
0
281
1
  3
Model
350
1A
  3
Layout1
350
1E
  0
DICTIONARY
  5
E
330
A
100
AcDbDictionary
280
0
281
1
  3
ByBlock
350
1F
  3
ByLayer
350
20
  3
Global
350
21
  0
DICTIONARY
  5
F
330
A
100
AcDbDictionary
280
0
281
1
  3
Standard
350
2C
  0
DICTIONARY
  5
10
330
A
100
AcDbDictionary
280
0
281
1
  3
Standard
350
22
  0
DICTIONARY
  5
11
330
A
100
AcDbDictionary
280
0
281
1
  0
ACDBDICTIONARYWDFLT
  5
12
330
A
100
AcDbDictionary
280
0
281
1
  3
Normal
350
13
100
AcDbDictionaryWithDefault
340
13
  0
ACDBPLACEHOLDER
  5
13
330
12
  0
DICTIONARY
  5
14
330
A
100
AcDbDictionary
280
0
281
1
  0
DICTIONARY
  5
15
330
A
100
AcDbDictionary
280
0
281
1
  0
DICTIONARY
  5
16
330
A
100
AcDbDictionary
280
0
281
1
  0
LAYOUT
  5
1A
330
D
100
AcDbPlotSettings
  1

  2
Adobe PDF
  4
A3
  6

 40
7.5
 41
20.0
 42
7.5
 43
20.0
 44
420.0
 45
297.0
 46
0.0
 47
0.0
 48
0.0
 49
0.0
140
0.0
141
0.0
142
1.0
143
1.0
 70
1024
 72
1
 73
0
 74
5
  7

 75
16
 76
0
 77
2
 78
300
147
1.0
148
0.0
149
0.0
100
AcDbLayout
  1
Model
 70
1
 71
0
 10
0.0
 20
0.0
 11
420.0
 21
297.0
 12
0.0
 22
0.0
 32
0.0
 14
1e+20
 24
1e+20
 34
1e+20
 15
-1e+20
 25
-1e+20
 35
-1e+20
146
0.0
 13
0.0
 23
0.0
 33
0.0
 16
1.0
 26
0.0
 36
0.0
 17
0.0
 27
1.0
 37
0.0
 76
1
330
17
  0
LAYOUT
  5
1E
330
D
100
AcDbPlotSettings
  1

  2
Adobe PDF
  4
A3
  6

 40
7.5
 41
20.0
 42
7.5
 43
20.0
 44
420.0
 45
297.0
 46
0.0
 47
0.0
 48
0.0
 49
0.0
140
0.0
141
0.0
142
1.0
143
1.0
 70
0
 72
1
 73
0
 74
5
  7

 75
16
 76
0
 77
2
 78
300
147
1.0
148
0.0
149
0.0
100
AcDbLayout
  1
Layout1
 70
1
 71
1
 10
0.0
 20
0.0
 11
420.0
 21
297.0
 12
0.0
 22
0.0
 32
0.0
 14
1e+20
 24
1e+20
 34
1e+20
 15
-1e+20
 25
-1e+20
 35
-1e+20
146
0.0
 13
0.0
 23
0.0
 33
0.0
 16
1.0
 26
0.0
 36
0.0
 17
0.0
 27
1.0
 37
0.0
 76
1
330
1B
  0
MATERIAL
  5
1F
102
{ACAD_REACTORS
330
E
102
}
330
E
100
AcDbMaterial
  1
ByBlock
  2

 70
0
 40
1.0
 71
1
 41
1.0
 91
-1023410177
 42
1.0
 72
1
  3

 73
1
 74
1
 75
1
 44
0.5
 73
0
 45
1.0
 46
1.0
 77
1
  4

 78
1
 79
1
170
1
 48
1.0
171
1
  6

172
1
173
1
174
1
140
1.0
141
1.0
175
1
  7

176
1
177
1
178
1
143
1.0
179
1
  8

270
1
271
1
272
1
145
1.0
146
1.0
273
1
  9

274
1
275
1
276
1
 42
1.0
 72
1
  3

 73
1
 74
1
 75
1
 94
63
  0
MATERIAL
  5
20
102
{ACAD_REACTORS
330
E
102
}
330
E
100
AcDbMaterial
  1
ByLayer
  2

 70
0
 40
1.0
 71
1
 41
1.0
 91
-1023410177
 42
1.0
 72
1
  3

 73
1
 74
1
 75
1
 44
0.5
 73
0
 45
1.0
 46
1.0
 77
1
  4

 78
1
 79
1
170
1
 48
1.0
171
1
  6

172
1
173
1
174
1
140
1.0
141
1.0
175
1
  7

176
1
177
1
178
1
143
1.0
179
1
  8

270
1
271
1
272
1
145
1.0
146
1.0
273
1
  9

274
1
275
1
276
1
 42
1.0
 72
1
  3

 73
1
 74
1
 75
1
 94
63
  0
MATERIAL
  5
21
102
{ACAD_REACTORS
330
E
102
}
330
E
100
AcDbMaterial
  1
Global
  2

 70
0
 40
1.0
 71
1
 41
1.0
 91
-1023410177
 42
1.0
 72
1
  3

 73
1
 74
1
 75
1
 44
0.5
 73
0
 45
1.0
 46
1.0
 77
1
  4

 78
1
 79
1
170
1
 48
1.0
171
1
  6

172
1
173
1
174
1
140
1.0
141
1.0
175
1
  7

176
1
177
1
178
1
143
1.0
179
1
  8

270
1
271
1
272
1
145
1.0
146
1.0
273
1
  9

274
1
275
1
276
1
 42
1.0
 72
1
  3

 73
1
 74
1
 75
1
 94
63
  0
MLINESTYLE
  5
22
102
{ACAD_REACTORS
330
10
102
}
330
10
100
AcDbMlineStyle
  2
Standard
 70
0
  3

 62
256
 51
90.0
 52
90.0
 71
2
 49
0.5
 62
256
  6
BYLAYER
 49
-0.5
 62
256
  6
BYLAYER
  0
MLEADERSTYLE
  5
2C
102
{ACAD_REACTORS
330
F
102
}
330
F
100
AcDbMLeaderStyle
179
2
170
2
171
1
172
0
 90
2
 40
0.0
 41
0.0
173
1
 91
-1056964608
 92
-2
290
1
 42
2.0
291
1
 43
8.0
  3
Standard
 44
4.0
300

342
29
174
1
175
1
176
0
178
1
 93
-1056964608
 45
4.0
292
0
297
0
 46
4.0
 94
-1056964608
 47
1.0
 49
1.0
140
1.0
294
1
141
0.0
177
0
142
1.0
295
0
296
0
143
3.75
271
0
272
9
273
9
  0
DICTIONARY
  5
2D
330
A
100
AcDbDictionary
281
1
  3
CREATED_BY_EZDXF
350
2E
  3
WRITTEN_BY_EZDXF
350
BB0
  0
DICTIONARYVAR
  5
2E
330
2D
100
DictionaryVariables
280
0
  1
1.1.3 @ 2025-04-01T15:42:36.934891+00:00
  0
DICTIONARYVAR
  5
BB0
330
2D
100
DictionaryVariables
280
0
  1
1.1.3 @ 2025-04-07T13:40:37.468895+00:00
  0
ENDSEC
  0
EOF
